<svg width="163" height="163" viewBox="0 0 163 163" fill="none" xmlns="http://www.w3.org/2000/svg">
<path d="M0.794874 82.6172C1.24623 127.26 37.8023 163.084 82.4451 162.633C127.088 162.182 162.912 125.626 162.461 80.9828C162.009 36.3399 125.453 0.515702 80.8106 0.967055C36.1678 1.41841 0.343522 37.9744 0.794874 82.6172Z" fill="#EEE2A8"/>
<path d="M105.062 139.731C169.497 91.2038 129.903 42.5615 102.051 24.3062C109.709 35.2461 120.854 58.901 104.167 66.0016C85.9506 69.9274 83.4126 43.773 84.4206 30.2051L76.6533 39.8377L70.1922 32.0894C73.1519 44.3959 75.0462 68.2029 58.9452 64.9789C42.8443 61.7549 46.9876 40.9459 51.0718 30.9444C1.49053 80.1924 24.325 118.752 52.3461 137.519C30.5043 107.254 46.8026 106.359 57.0329 114.113C66.1802 96.1908 75.9503 112.232 80.2421 136.269C84.9074 98.7375 98.0309 96.6445 104.647 107.807C119.751 91.1267 116.863 125.463 105.062 139.731Z" fill="#231F20"/>
</svg>
