<svg width="393" height="157" viewBox="0 0 393 157" fill="none" xmlns="http://www.w3.org/2000/svg">
<path d="M203.871 147.41L189.094 144.567C186.598 144.087 184.795 141.904 184.795 139.362C184.795 136.284 182.182 133.825 179.104 133.906C174.457 134.03 167.134 134.078 157.774 133.663C147.328 133.2 149.638 119.301 160.093 119.248C161.667 119.24 163.067 119.211 164.26 119.158C181.048 118.415 173.798 116.213 178.758 112.494C183.718 108.775 164.26 112.495 157.392 104.686C150.525 96.8761 164.26 104.686 169.983 96.875C175.706 89.0644 162.352 86.5439 157.774 86.5439C153.195 86.5439 137.934 79.1064 119.62 79.1064C101.307 79.1064 101.654 81.3042 80.2879 75.7245C58.9219 70.1448 45.5681 70.5181 40.6082 71.2616C25.8906 73.4677 47.39 54.1429 32.8073 51.173C29.7418 50.5487 26.3817 49.7123 22.676 48.5751C20.3963 47.8756 18.2894 47.3308 16.345 46.8819C-6.56823 41.592 6.13996 21.4519 29.549 23.692C31.7677 23.9044 34.1733 24.0295 36.7928 24.0295C62.7372 24.0295 69.9864 44.8564 80.2879 48.5751C90.5893 52.2939 91.3524 53.41 92.8785 48.5751C94.4047 43.7403 83.3745 34.1044 103.214 28.8977C123.054 23.6909 118.094 34.1044 130.685 34.1044C143.276 34.1044 145.946 28.8977 152.051 34.1044C158.155 39.3111 165.786 34.1044 170.365 34.1044C174.943 34.1044 181.429 33.3606 189.441 28.8977C197.454 24.4348 203.558 21.8317 223.398 9.55873C243.238 -2.71427 248.961 14.7655 253.539 21.8317C262.301 35.3548 277.908 42.6586 294.021 42.6586H321.403C327.331 42.6586 332.136 47.4643 332.136 53.3924C332.136 58.4211 335.631 62.7614 340.483 64.0834C344.905 65.2882 349.863 66.8003 353.502 68.3204C361.514 71.6675 373.341 68.3204 383.261 68.3204C396.591 68.3204 395.466 86.684 382.137 86.6408C381.245 86.6379 380.347 86.6067 379.446 86.5439C363.422 85.4282 359.606 83.5693 348.542 79.1064C337.477 74.6435 325.65 77.6188 315.348 79.1064C305.047 80.5941 293.982 90.6356 284.444 93.6109C273.429 97.0466 293.087 109.497 300.607 100.746C301.4 99.8229 302.126 98.8105 302.757 97.7024C304.936 93.88 308.929 93.4987 313.132 94.6434C322.249 97.126 330.347 102.719 339.454 105.234L344.986 106.762C347.346 107.414 349.783 107.744 352.231 107.744H356.388C369.122 107.744 379.446 118.068 379.446 130.802C379.446 136.381 373.341 146.794 366.855 153.86C360.369 160.926 342.437 153.86 332.136 153.86C321.834 153.86 293.982 153.86 288.259 146.794C282.536 139.728 270.983 133.663 265.641 133.663C260.3 133.663 241.986 132.919 236.263 133.663C235.596 133.749 234.883 134.095 234.147 134.636C224.891 141.427 215.144 149.578 203.871 147.41Z" fill="#DCE2ED"/>
<path d="M200.062 142.105L185.285 139.263C182.789 138.783 180.986 136.599 180.986 134.058C180.986 130.979 178.373 128.52 175.295 128.602C170.648 128.725 163.325 128.773 153.965 128.358C143.519 127.895 145.829 113.997 156.284 113.943C157.858 113.935 159.258 113.907 160.451 113.854C177.239 113.11 169.989 110.909 174.949 107.189C179.909 103.47 160.451 107.191 153.583 99.381C146.716 91.5714 160.451 99.381 166.174 91.5703C171.897 83.7597 158.543 81.2392 153.965 81.2392C149.387 81.2392 134.125 73.8017 115.811 73.8017C97.4977 73.8017 97.8449 75.9995 76.4789 70.4198C55.1129 64.8401 41.7592 65.2134 36.7992 65.9569C22.0816 68.163 43.5811 48.8382 28.9984 45.8683C25.9328 45.244 22.5727 44.4076 18.867 43.2705C16.5873 42.5709 14.4804 42.0261 12.536 41.5772C-10.3772 36.2873 2.33099 16.1472 25.74 18.3873C27.9588 18.5997 30.3644 18.7248 32.9839 18.7248C58.9283 18.7248 66.1774 39.5517 76.4789 43.2705C86.7803 46.9892 87.5434 48.1053 89.0696 43.2705C90.5957 38.4356 79.5656 28.7997 99.4054 23.593C119.245 18.3863 114.285 28.7997 126.876 28.7997C139.467 28.7997 142.137 23.593 148.242 28.7997C154.347 34.0064 161.977 28.7997 166.556 28.7997C171.134 28.7997 177.62 28.0559 185.632 23.593C193.645 19.1301 199.749 16.527 219.589 4.25404C239.429 -8.01896 245.152 9.46076 249.73 16.527C258.492 30.0501 274.099 37.3539 290.212 37.3539H317.594C323.522 37.3539 328.327 42.1596 328.327 48.0878C328.327 53.1164 331.822 57.4567 336.674 58.7787C341.096 59.9835 346.054 61.4956 349.693 63.0157C357.705 66.3629 369.532 63.0157 379.452 63.0157C392.782 63.0157 391.657 81.3793 378.328 81.3361C377.436 81.3332 376.538 81.302 375.637 81.2392C359.613 80.1235 355.797 78.2646 344.733 73.8017C333.668 69.3388 321.841 72.3141 311.539 73.8017C301.238 75.2894 290.173 85.3309 280.635 88.3062C269.62 91.7419 289.278 104.193 296.798 95.4414C297.591 94.5182 298.317 93.5059 298.948 92.3977C301.127 88.5753 305.12 88.194 309.323 89.3387C318.44 91.8213 326.538 97.4141 335.645 99.9295L341.177 101.457C343.537 102.109 345.974 102.439 348.422 102.439H352.579C365.313 102.439 375.637 112.763 375.637 125.498C375.637 131.076 369.532 141.489 363.046 148.555C356.56 155.622 338.628 148.555 328.327 148.555C318.025 148.555 290.173 148.555 284.45 141.489C278.727 134.423 267.174 128.358 261.832 128.358C256.491 128.358 238.177 127.614 232.454 128.358C231.787 128.445 231.074 128.791 230.338 129.331C221.082 136.122 211.335 144.274 200.062 142.105Z" fill="#ABC9FF"/>
</svg>
