<svg width="1440" height="878" viewBox="0 0 1440 878" fill="none" xmlns="http://www.w3.org/2000/svg">
<path fill-rule="evenodd" clip-rule="evenodd" d="M0 32.6843V874.398L89.9683 816.669L181.23 854.435L286.779 877.002L373.893 843.842L488.2 854.435H551.806L632.006 877.002L704.83 854.435L801.162 843.842L872.604 865.027L938.976 854.435L1034.85 816.669L1122.42 854.435H1212.3L1361.17 877.002L1440 816.634V91.0005L1369.01 68.2382L1212.3 117.518L1137.63 76.0676L1025.17 29.091L967.092 41.5259L873.987 82.9759L812.224 29.091L694.229 52.5793L633.849 18.4982H528.76L433.812 76.0676H323.653L272.03 0.99707L210.268 18.4982H146.2L102.874 41.9865L44.7988 52.5793L0 32.6843Z" fill="#1E35AB"/>
</svg>
