<svg width="121" height="430" viewBox="0 0 121 430" fill="none" xmlns="http://www.w3.org/2000/svg">
<path fill-rule="evenodd" clip-rule="evenodd" d="M3.19922 414.155L22.6873 3.44727L34.2349 3.9952L14.7468 414.703L3.19922 414.155Z" fill="#D3D3D3"/>
<path fill-rule="evenodd" clip-rule="evenodd" d="M109.127 429.305L73.6484 1.83119L85.1694 0.875L120.648 428.349L109.127 429.305Z" fill="#D3D3D3"/>
<path fill-rule="evenodd" clip-rule="evenodd" d="M9.32031 414.45L28.8084 3.74219L33.4274 3.96136L13.9393 414.67L9.32031 414.45Z" fill="#919191"/>
<path fill-rule="evenodd" clip-rule="evenodd" d="M79.7656 1.30981L115.374 428.803L119.982 428.419L84.3739 0.925964L79.7656 1.30981Z" fill="#919191"/>
<path fill-rule="evenodd" clip-rule="evenodd" d="M0 345.077C-2.23268e-07 342.523 2.07033 340.453 4.62422 340.453H109.124C111.678 340.453 113.748 342.523 113.748 345.077C113.748 347.631 111.678 349.702 109.124 349.702H4.62422C2.07033 349.702 2.23268e-07 347.631 0 345.077Z" fill="#D3D3D3"/>
<path fill-rule="evenodd" clip-rule="evenodd" d="M4.34766 297.032C4.34766 294.479 6.41799 292.408 8.97188 292.408H105.609C108.163 292.408 110.233 294.479 110.233 297.032C110.233 299.586 108.163 301.657 105.609 301.657H8.97188C6.41799 301.657 4.34766 299.586 4.34766 297.032Z" fill="#D3D3D3"/>
<path fill-rule="evenodd" clip-rule="evenodd" d="M7.00391 250.38C7.00391 247.826 9.07424 245.756 11.6281 245.756L100.692 245.756C103.246 245.756 105.316 247.826 105.316 250.38C105.316 252.934 103.246 255.004 100.692 255.004L11.6281 255.004C9.07424 255.004 7.00391 252.934 7.00391 250.38Z" fill="#D3D3D3"/>
<path fill-rule="evenodd" clip-rule="evenodd" d="M9.10938 204.425C9.10937 201.871 11.1797 199.801 13.7336 199.801L100.692 199.801C103.245 199.801 105.316 201.871 105.316 204.425C105.316 206.979 103.245 209.049 100.692 209.049L13.7336 209.049C11.1797 209.049 9.10938 206.979 9.10938 204.425Z" fill="#D3D3D3"/>
<path fill-rule="evenodd" clip-rule="evenodd" d="M12.5508 158.472C12.5508 155.918 14.6211 153.848 17.175 153.848H96.951C99.5048 153.848 101.575 155.918 101.575 158.472C101.575 161.026 99.5048 163.096 96.951 163.096L17.175 163.096C14.6211 163.096 12.5508 161.026 12.5508 158.472Z" fill="#D3D3D3"/>
<path fill-rule="evenodd" clip-rule="evenodd" d="M14.0938 112.517C14.0938 109.963 16.1641 107.893 18.718 107.893H91.4367C93.9906 107.893 96.0609 109.963 96.0609 112.517C96.0609 115.071 93.9906 117.141 91.4367 117.141H18.718C16.1641 117.141 14.0938 115.071 14.0938 112.517Z" fill="#D3D3D3"/>
<path fill-rule="evenodd" clip-rule="evenodd" d="M17.8203 77.7004C17.8203 75.1465 19.8906 73.0762 22.4445 73.0762H87.8793C90.4332 73.0762 92.5035 75.1465 92.5035 77.7004C92.5035 80.2543 90.4332 82.3246 87.8793 82.3246H22.4445C19.8906 82.3246 17.8203 80.2543 17.8203 77.7004Z" fill="#D3D3D3"/>
<path fill-rule="evenodd" clip-rule="evenodd" d="M17.2617 46.3664C17.2617 43.8125 19.3321 41.7422 21.8859 41.7422H86.6905C89.2443 41.7422 91.3147 43.8125 91.3147 46.3664C91.3147 48.9203 89.2443 50.9906 86.6905 50.9906H21.8859C19.3321 50.9906 17.2617 48.9203 17.2617 46.3664Z" fill="#D3D3D3"/>
</svg>
