<svg width="503" height="350" viewBox="0 0 503 350" fill="none" xmlns="http://www.w3.org/2000/svg">
<path d="M477.364 332.734C482.007 328.211 499.15 327.167 502.721 328.211L500.935 285.415C495.935 277.761 486.078 260.504 486.65 252.71C487.364 242.968 485.578 243.664 482.007 238.097C478.436 232.53 470.579 238.097 461.65 243.664C452.722 249.231 439.865 252.71 422.365 249.579C404.866 246.447 405.937 245.404 402.008 231.834C398.08 218.265 405.937 218.613 417.722 207.131C429.508 195.65 429.865 193.91 426.651 184.516C423.437 175.122 409.866 180.341 405.937 165.032C402.008 157.726 397.009 165.032 377.723 157.03C358.438 149.028 369.152 165.032 360.938 172.339C352.724 179.645 341.653 180.341 323.082 190.779C304.511 201.217 312.367 190.779 300.225 180.341C288.083 169.903 294.868 172.339 300.225 157.03C305.582 141.721 312.367 154.247 318.796 143.113C325.225 131.979 315.582 135.458 305.582 118.062C295.582 100.666 302.011 112.147 312.367 112.147H332.367C341.653 112.147 341.653 126.064 343.796 135.458C345.938 144.853 352.01 143.113 360.938 143.113C369.866 143.113 370.938 143.113 377.723 140.329C384.509 137.546 373.795 135.458 377.723 129.544C381.652 123.629 377.723 126.064 382.723 118.062C387.723 110.06 390.223 116.67 402.008 112.147C413.794 107.625 413.437 112.147 433.258 112.147C453.079 112.147 439.865 117.018 442.722 121.541C445.008 125.16 441.77 128.384 439.865 129.544C438.198 131.515 434.544 138.172 433.258 149.028C440.579 154.942 443.793 154.247 455.579 154.247C467.364 154.247 464.865 154.247 470.579 149.028C476.292 143.809 471.65 144.157 489.864 143.113C508.078 142.069 496.65 155.638 502.721 154.247C507.578 153.133 503.554 70.0483 500.935 28.645C496.65 29.8047 488.436 32.1241 489.864 32.1241C491.65 32.1241 492.007 42.2139 489.864 45.3452C487.721 48.4766 475.579 55.4351 464.865 57.1747C454.151 58.9144 441.651 51.2601 434.865 51.2601C428.08 51.2601 415.937 38.3867 409.866 37.3429C403.794 36.2991 395.58 41.1701 390.223 45.3452C384.866 49.5203 377.724 57.1747 370.938 61.6978C364.152 66.2209 352.01 66.9168 343.796 69.7001C335.581 72.4835 345.581 80.8338 343.796 85.0089C342.01 89.1841 330.582 94.403 323.082 85.0089C315.582 75.6149 325.582 66.9168 341.653 57.1747C354.51 49.3811 353.914 39.5464 352.01 35.6032C364.867 41.1701 394.152 32.1241 390.223 32.1241C386.295 32.1241 367.367 28.645 355.938 18.5548C346.796 10.4826 336.415 17.2789 332.367 21.6861C316.653 16.119 310.344 26.3251 309.153 32.1241C301.058 34.2116 282.44 37.1341 272.726 32.1241C263.012 27.114 254.631 27.7172 251.655 28.645L247.726 15.7714C257.012 14.8436 270.797 11.1787 251.655 3.94184C227.727 -5.10428 215.227 42.2142 197.37 28.645C179.513 15.0758 176.656 32.1241 168.085 32.1241C159.514 32.1241 135.228 31.0803 139.157 32.1241C143.085 33.1678 154.157 44.3015 153.442 51.2601C152.871 56.8269 149.871 64.0174 148.442 66.9168C155.109 66.221 171.156 64.6206 182.013 63.7855C195.584 62.7417 248.44 67.6127 212.013 76.6588C175.585 85.705 182.37 111.452 176.656 112.147C170.942 112.843 163.799 128.848 160.585 126.064C157.371 123.281 123.086 122.237 118.443 121.541C113.8 120.845 63.4441 116.67 52.3729 126.064C43.5159 133.58 17.9688 153.319 6.3024 162.249C16.4212 162.829 37.5875 164.197 41.3017 165.032C45.9445 166.076 67.0155 174.426 80.2295 172.339C90.8007 170.669 110.11 183.936 118.443 190.779C122.014 198.317 130.371 215.76 135.228 225.224C141.3 237.053 160.585 252.71 163.799 252.71C167.013 252.71 182.013 256.885 190.584 249.579C197.441 243.733 212.251 239.489 218.798 238.097C219.87 216.178 238.083 208.871 251.655 207.131C265.226 205.392 259.869 218.613 284.868 225.224C298.439 231.834 314.868 234.966 318.796 231.834C322.725 228.703 327.01 231.486 333.796 229.051C340.581 226.615 340.224 221.744 347.724 218.613C355.224 215.482 364.509 220.701 369.152 218.613C372.866 216.943 373.795 207.711 373.795 203.304L391.652 197.737C396.056 203.536 398.652 217.152 373.795 225.224C342.724 235.314 361.652 255.145 364.509 256.885C367.367 258.625 388.08 287.155 391.652 285.415C395.223 283.676 435.579 310.814 422.365 305.595C409.151 300.376 395.58 311.51 387.009 306.291C378.438 301.072 363.081 305.247 342.367 306.291C325.796 307.126 335.462 316.149 342.367 320.556C350.7 320.556 365.724 322.574 359.152 330.646C352.581 338.718 329.51 338.416 318.796 337.257C317.844 339.692 316.51 344.563 318.796 344.563C321.653 344.563 340.224 355.349 349.153 344.563C356.295 335.934 372.605 331.69 379.866 330.646C377.366 328.21 373.509 322.783 378.081 320.556C382.652 318.329 399.985 316.961 447.008 318.816V336.213C423.08 344.215 451.293 348.042 458.793 344.563C466.293 341.084 472.722 337.257 477.364 332.734Z" fill="#DCE2ED"/>
<path d="M471.651 329.951C476.294 325.427 493.436 324.384 497.007 325.427L495.222 282.632C490.222 274.978 480.365 257.72 480.936 249.927C481.65 240.185 479.865 240.881 476.293 235.314C472.722 229.747 464.865 235.314 455.937 240.881C447.008 246.448 434.151 249.927 416.652 246.795C399.153 243.664 400.223 242.62 396.295 229.051C392.366 215.482 400.223 215.83 412.009 204.348C423.794 192.867 424.152 191.127 420.937 181.733C417.723 172.339 404.152 177.558 400.223 162.249C396.295 154.943 391.295 162.249 372.01 154.247C352.724 146.244 363.439 162.249 355.224 169.555C347.01 176.862 335.939 177.558 317.368 187.996C298.797 198.433 306.654 187.996 294.512 177.558C282.369 167.12 289.154 169.555 294.512 154.247C299.869 138.938 306.654 151.463 313.083 140.33C319.511 129.196 309.868 132.675 299.868 115.279C289.869 97.8825 296.297 109.364 306.654 109.364H326.654C335.939 109.364 335.939 123.281 338.082 132.675C340.225 142.069 346.296 140.33 355.224 140.33C364.153 140.33 365.224 140.33 372.01 137.546C378.795 134.763 368.081 132.675 372.01 126.76C375.938 120.846 372.01 123.281 377.01 115.279C382.01 107.277 384.51 113.887 396.295 109.364C408.08 104.841 407.723 109.364 427.544 109.364C447.365 109.364 434.151 114.235 437.008 118.758C439.294 122.376 436.056 125.601 434.151 126.76C432.485 128.732 428.83 135.389 427.544 146.244C434.866 152.159 438.08 151.463 449.865 151.463C461.651 151.463 459.151 151.463 464.865 146.244C470.579 141.025 465.936 141.373 484.151 140.33C502.365 139.286 490.936 152.855 497.007 151.463C501.865 150.35 497.841 67.2651 495.222 25.8618C490.936 27.0215 482.722 29.3409 484.151 29.3409C485.936 29.3409 486.293 39.4307 484.151 42.562C482.008 45.6934 469.865 52.6519 459.151 54.3915C448.437 56.1312 435.937 48.4769 429.152 48.4769C422.366 48.4769 410.223 35.6035 404.152 34.5597C398.081 33.5159 389.867 38.3869 384.51 42.562C379.153 46.7371 372.01 54.3915 365.224 58.9146C358.439 63.4377 346.296 64.1336 338.082 66.9169C329.868 69.7002 339.868 78.0506 338.082 82.2257C336.296 86.4009 324.868 91.6198 317.368 82.2257C309.868 72.8317 319.868 64.1336 335.939 54.3915C348.796 46.5979 348.201 36.7632 346.296 32.82C359.153 38.3869 388.438 29.3409 384.51 29.3409C380.581 29.3409 361.653 25.8618 350.225 15.7716C341.082 7.6994 330.701 14.4957 326.654 18.9029C310.94 13.3358 304.63 23.5419 303.44 29.3409C295.345 31.4284 276.726 34.3509 267.012 29.3409C257.298 24.3308 248.917 24.934 245.941 25.8618L242.013 12.9882C251.298 12.0604 265.084 8.39553 245.941 1.15864C222.013 -7.88748 209.513 39.431 191.656 25.8618C173.8 12.2926 170.943 29.3409 162.371 29.3409C153.8 29.3409 129.515 28.2971 133.443 29.3409C137.372 30.3846 148.443 41.5183 147.729 48.4769C147.157 54.0437 144.157 61.2342 142.729 64.1336C149.395 63.4378 165.443 61.8373 176.3 61.0023C189.871 59.9585 242.727 64.8295 206.299 73.8756C169.871 82.9218 176.657 108.668 170.943 109.364C165.228 110.06 158.086 126.065 154.871 123.281C151.657 120.497 117.372 119.454 112.729 118.758C108.087 118.062 57.7306 113.887 46.6594 123.281C37.8024 130.796 12.2553 150.535 0.588867 159.466C10.7077 160.045 31.8739 161.414 35.5882 162.249C40.2309 163.293 61.3019 171.643 74.5159 169.555C85.0872 167.885 104.396 181.153 112.729 187.996C116.301 195.534 124.658 212.977 129.515 222.44C135.586 234.27 154.871 249.927 158.086 249.927C161.3 249.927 176.3 254.102 184.871 246.795C191.728 240.95 206.537 236.705 213.085 235.314C214.156 213.394 232.37 206.088 245.941 204.348C259.512 202.609 254.155 215.83 279.155 222.44C292.726 229.051 309.154 232.182 313.083 229.051C317.011 225.92 321.297 228.703 328.082 226.268C334.868 223.832 334.511 218.961 342.011 215.83C349.51 212.698 358.796 217.917 363.439 215.83C367.153 214.16 368.081 204.928 368.081 200.521L385.938 194.954C390.343 200.753 392.938 214.368 368.081 222.44C337.011 232.53 355.939 252.362 358.796 254.102C361.653 255.841 382.367 284.372 385.938 282.632C389.51 280.892 429.866 308.031 416.652 302.812C403.438 297.593 389.867 308.727 381.296 303.508C372.724 298.289 357.367 302.464 336.654 303.508C320.082 304.343 329.749 313.366 336.654 317.773C344.987 317.773 360.01 319.791 353.439 327.863C346.868 335.935 323.797 335.633 313.083 334.474C312.13 336.909 310.797 341.78 313.083 341.78C315.94 341.78 334.511 352.565 343.439 341.78C350.582 333.151 366.891 328.906 374.153 327.863C371.653 325.427 367.796 319.999 372.367 317.773C376.938 315.546 394.271 314.177 441.294 316.033V333.429C417.366 341.432 445.58 345.259 453.08 341.78C460.58 338.3 467.008 334.474 471.651 329.951Z" fill="#ABC9FF"/>
</svg>
