<svg width="390" height="393" viewBox="0 0 390 393" fill="none" xmlns="http://www.w3.org/2000/svg">
<path d="M252.15 322.533L275.314 350.864C244.494 346.836 182.128 338.704 179.222 338.4C175.589 338.021 163.988 333.789 167.662 331.913C171.336 330.038 188.023 324.851 193.884 319.42C199.745 313.99 206.743 297.661 203.389 297.934C200.034 298.208 190.97 302.999 188.77 303.628C186.57 304.258 171.084 304.845 165.147 301.051C160.397 298.016 148.535 298.878 143.198 299.688C139.628 307.436 127.521 322.78 107.66 322.171C82.8343 321.41 51.3879 333.853 50.1095 342.579C49.3785 347.568 62.5518 354.937 74.9557 360.541C77.9308 361.885 77.3875 368.517 74.3328 369.669C59.4365 375.286 41.1658 386.232 31.794 392.486L32.1451 380.52L24.0065 388.478C17.6285 391.596 4.03637 395.71 0.692214 387.228C-2.65194 378.747 13.4007 366.849 21.8451 361.96L21.5566 331.974C24.9912 327.328 33.7945 318.574 41.5307 320.729C49.2669 322.884 64.6049 318.351 71.3068 315.815C84.6715 320.297 90.5958 319.217 91.8874 318.117C94.9296 311.502 111.081 303.399 118.777 300.174C118.502 298.152 117.801 293.489 117.202 291.018C116.602 288.546 128.057 281.124 133.859 277.722C122.231 278.272 114.505 287.092 112.096 291.434C112.369 294.783 106.586 301.135 81.2714 299.749C71.414 299.21 65.7629 295.37 63.3001 289.765C54.3037 269.294 84.6795 256.307 107.041 256.307H112.201C124.075 256.307 135.874 258.188 147.159 261.882C160.81 256.458 188.069 243.857 187.895 236.841C187.721 229.826 167.002 232.078 156.665 234.081L152.687 217.825L161.341 206.011L162.724 192.469C171.373 181.418 181.704 174.452 185.789 172.35C202.53 180.437 191.338 199.753 190.185 199.847C189.263 199.922 190.553 209.102 191.313 213.682C192.661 209.063 210.449 200.959 219.174 197.484C227.54 195.697 245.619 187.105 251.014 167.034C256.408 146.964 244.515 123.239 237.894 113.886C245.861 105.168 261.833 86.9984 261.992 84.0673C262.191 80.4035 248.067 73.9277 247.368 73.4873C246.669 73.0469 238.853 54.4509 241.213 46.7974C243.102 40.6746 245.641 29.2484 246.675 24.3006C260.883 -0.732925 281.505 2.06293 292.789 0.148378C304.073 -1.76617 301.412 20.5024 297.835 25.4364C294.973 29.3836 287.295 30.3852 283.814 30.3927C283.482 37.715 278.576 45.4654 276.165 48.4254C275.327 56.4522 289.095 76.8841 287.935 80.9579C287.007 84.217 274.161 103.856 267.854 113.268C276.664 118.298 293.867 129.32 292.191 133.17C290.515 137.021 287.788 146.213 286.633 150.327C275.7 157.177 274.707 160.663 269.089 170.059C264.594 177.575 260.863 192.719 259.559 199.352C242.798 210.933 239.129 223.716 239.391 228.661C261.818 232.281 313.361 208.444 336.329 196.074L379.214 189.599C383.98 190.629 392.62 194.295 389.058 200.714C385.495 207.133 386.415 220.508 387.32 226.393C368.535 230.903 353.562 250.851 353.371 258.953C353.218 265.435 359.616 279.866 362.833 286.272L341.693 287.995C332.623 296.821 289.619 291.388 281.783 299.688C275.514 306.328 259.416 317.685 252.15 322.533Z" fill="#DCE2ED"/>
<path d="M252.15 322.533L275.314 350.864C244.494 346.836 182.128 338.704 179.222 338.4C175.589 338.021 163.988 333.789 167.662 331.913C171.336 330.038 188.023 324.851 193.884 319.42C199.745 313.99 206.743 297.661 203.389 297.934C200.034 298.208 190.97 302.999 188.77 303.628C186.57 304.258 171.084 304.845 165.147 301.051C160.397 298.016 148.535 298.878 143.198 299.688C139.628 307.436 127.521 322.78 107.66 322.171C82.8343 321.41 51.3879 333.853 50.1095 342.579C49.3785 347.568 62.5518 354.937 74.9557 360.541C77.9308 361.885 77.3875 368.517 74.3328 369.669C59.4365 375.286 41.1658 386.232 31.794 392.486L32.1451 380.52L24.0065 388.478C17.6285 391.596 4.03637 395.71 0.692214 387.228C-2.65194 378.747 13.4007 366.849 21.8451 361.96L21.5566 331.974C24.9912 327.328 33.7945 318.574 41.5307 320.729C49.2669 322.884 64.6049 318.351 71.3068 315.815C84.6715 320.297 90.5958 319.217 91.8874 318.117C94.9296 311.502 111.081 303.399 118.777 300.174C118.502 298.152 117.801 293.489 117.202 291.018C116.602 288.546 128.057 281.124 133.859 277.722C122.231 278.272 114.505 287.092 112.096 291.434C112.369 294.783 106.586 301.135 81.2714 299.749C71.414 299.21 65.7629 295.37 63.3001 289.765C54.3037 269.294 84.6795 256.307 107.041 256.307H112.201C124.075 256.307 135.874 258.188 147.159 261.882C160.81 256.458 188.069 243.857 187.895 236.841C187.721 229.826 167.002 232.078 156.665 234.081L152.687 217.825L161.341 206.011L162.724 192.469C171.373 181.418 181.704 174.452 185.789 172.35C202.53 180.437 191.338 199.753 190.185 199.847C189.263 199.922 190.553 209.102 191.313 213.682C192.661 209.063 210.449 200.959 219.174 197.484C227.54 195.697 245.619 187.105 251.014 167.034C256.408 146.964 244.515 123.239 237.894 113.886C245.861 105.168 261.833 86.9984 261.992 84.0673C262.191 80.4035 248.067 73.9277 247.368 73.4873C246.669 73.0469 238.853 54.4509 241.213 46.7974C243.102 40.6746 245.641 29.2484 246.675 24.3006C260.883 -0.732925 281.505 2.06293 292.789 0.148378C304.073 -1.76617 301.412 20.5024 297.835 25.4364C294.973 29.3836 287.295 30.3852 283.814 30.3927C283.482 37.715 278.576 45.4654 276.165 48.4254C275.327 56.4522 289.095 76.8841 287.935 80.9579C287.007 84.217 274.161 103.856 267.854 113.268C276.664 118.298 293.867 129.32 292.191 133.17C290.515 137.021 287.788 146.213 286.633 150.327C275.7 157.177 274.707 160.663 269.089 170.059C264.594 177.575 260.863 192.719 259.559 199.352C242.798 210.933 239.129 223.716 239.391 228.661C261.818 232.281 313.361 208.444 336.329 196.074L379.214 189.599C383.98 190.629 392.62 194.295 389.058 200.714C385.495 207.133 386.415 220.508 387.32 226.393C368.535 230.903 353.562 250.851 353.371 258.953C353.218 265.435 359.616 279.866 362.833 286.272L341.693 287.995C332.623 296.821 289.619 291.388 281.783 299.688C275.514 306.328 259.416 317.685 252.15 322.533Z" fill="#DCE2ED"/>
<path d="M240.944 346.379L230.712 333.865C237.978 329.017 254.077 317.66 260.345 311.02C262.586 308.647 267.701 307.397 274.076 306.615C277.208 304.087 279.96 301.681 281.834 299.696C285.697 295.604 298.107 294.85 310.785 294.08C321.202 293.447 331.799 292.803 337.984 290.288C337.905 290.105 337.825 289.92 337.745 289.735C334.82 282.955 331.829 274.741 331.934 270.285C332.125 262.183 347.098 242.235 365.883 237.725C364.978 231.84 364.058 218.465 367.62 212.046C371.183 205.627 362.542 201.961 357.776 200.931L314.891 207.406C291.923 219.776 240.38 243.613 217.953 239.993C217.692 235.048 221.36 222.265 238.122 210.684C239.426 204.051 243.157 188.907 247.652 181.391C248.38 180.173 249.03 179.055 249.634 178.016C253.694 171.035 255.679 167.621 265.196 161.659C266.35 157.545 269.078 148.353 270.754 144.502C272.429 140.652 255.227 129.63 246.417 124.6C252.724 115.188 265.57 95.549 266.498 92.29C267.018 90.4618 264.533 85.3392 261.709 79.5218C258.242 72.3761 254.265 64.182 254.727 59.7574C257.139 56.7975 262.045 49.047 262.376 41.7247C265.858 41.7173 273.536 40.7157 276.397 36.7685C279.974 31.8345 282.636 9.56587 271.352 11.4804C269.508 11.7931 267.416 11.9802 265.143 12.1834C261.959 12.4681 258.42 12.7845 254.715 13.5226C251.911 16.3778 249.22 19.9144 246.726 24.3084C245.692 29.2562 243.153 40.6824 241.264 46.8053C238.904 54.4588 246.72 73.0547 247.419 73.4951C247.513 73.5544 247.85 73.7229 248.363 73.979C251.659 75.627 262.215 80.9042 262.043 84.0751C261.884 87.0062 245.911 105.176 237.945 113.894C244.566 123.247 256.459 146.971 251.064 167.042C245.67 187.113 227.591 195.705 219.225 197.492C218.65 197.721 218.036 197.97 217.39 198.237C217.289 198.328 217.189 198.419 217.088 198.509C210.222 204.652 202.443 207.811 197.737 208.816C196.739 209.214 195.622 209.672 194.425 210.178C192.778 211.462 191.664 212.662 191.364 213.69C191.263 213.08 191.152 212.389 191.039 211.648C190.66 211.817 190.278 211.989 189.892 212.163C181.145 216.125 170.887 221.55 169.876 225.014C169.116 220.434 167.826 211.254 168.748 211.179C169.795 211.093 179.128 195.144 168.276 186.162C166.417 188.088 164.56 190.195 162.775 192.476L161.392 206.019L152.738 217.833L156.716 234.089C167.053 232.086 187.772 229.833 187.946 236.849C188.081 242.314 171.574 251.167 157.817 257.377C157.629 257.501 157.437 257.625 157.244 257.75C148.101 263.631 134.254 269.824 125.722 273.214C114.437 269.52 102.637 267.639 90.7633 267.639H85.6035C79.7837 267.639 73.4208 268.518 67.3506 270.181C62.143 275.464 59.9753 282.092 63.351 289.773C65.8138 295.378 71.4649 299.218 81.3223 299.757C85.6396 299.993 89.3888 300.005 92.6367 299.844C92.8882 299.525 93.1561 299.199 93.4401 298.869C97.1744 294.531 103.7 289.467 112.421 289.054C108.192 291.534 100.958 296.151 97.5801 299.429C97.5801 299.429 97.5802 299.428 97.5801 299.429C109.276 297.987 112.347 293.903 112.147 291.442C114.556 287.1 122.282 278.28 133.91 277.73C128.108 281.132 116.653 288.554 117.253 291.025C117.852 293.497 118.553 298.16 118.828 300.182C111.132 303.407 94.9805 311.51 91.9383 318.125C91.1062 318.834 88.3512 319.534 82.9225 318.744C82.6638 318.897 82.4061 319.051 82.1498 319.206C77.2715 322.158 72.8715 325.459 70.9591 328.514C81.9439 324.572 95.6135 321.808 107.711 322.179C109.926 322.247 112.045 322.116 114.066 321.82C114.106 321.78 114.145 321.74 114.184 321.7C117.882 317.9 120.422 313.926 121.761 311.02C125.007 310.528 130.668 310.016 135.674 310.373C139.372 306.574 141.91 302.601 143.249 299.696C148.586 298.886 160.448 298.024 165.197 301.059C171.135 304.853 186.621 304.266 188.821 303.636C189.595 303.414 191.22 302.677 193.148 301.803C196.695 300.193 201.266 298.119 203.44 297.942C206.794 297.669 199.796 313.998 193.935 319.428C189.78 323.278 180.184 327.006 173.641 329.518C173.612 329.55 173.584 329.582 173.556 329.613C173.184 330.031 172.813 330.413 172.447 330.753C171.266 331.846 169.647 332.93 167.783 333.979C167.783 333.979 167.783 333.979 167.783 333.979C170.058 335.914 176.686 338.138 179.273 338.408C181.293 338.619 212.034 342.611 240.944 346.379Z" fill="#ABC9FF"/>
<path d="M52.2392 338.889C39.3069 343.126 29.3789 349.087 28.6721 353.911C27.9411 358.9 41.1144 366.269 53.5184 371.873C55.5637 372.797 55.9461 376.22 54.9927 378.644C54.984 378.666 54.9753 378.688 54.9664 378.71C51.4834 380.568 48.0865 382.485 44.9125 384.349C40.7647 386.241 36.5298 388.385 32.4342 390.594C32.2532 390.692 32.0725 390.79 31.892 390.888L32.196 380.527L24.0574 388.486C20.7374 390.109 15.4626 392.002 10.6961 392.248L10.7077 391.852L10.2855 392.265C6.06035 392.398 2.29636 391.176 0.743119 387.236C-2.60104 378.754 13.4516 366.857 21.896 361.968L21.6114 332.386C29.693 333.663 43.5818 329.526 49.8694 327.147C57.4915 329.703 62.6935 330.45 65.9963 330.416C66.0256 330.416 66.0547 330.416 66.0836 330.415C59.8421 333.059 54.888 336.039 52.2392 338.889Z" fill="#ABC9FF"/>
</svg>
