<svg width="1440" height="479" viewBox="0 0 1440 479" fill="none" xmlns="http://www.w3.org/2000/svg">
<path d="M1440 465.538H-0.000488281V402.428L16.7806 383.658V360.718H36.288V383.658L43.6033 391.479L50.9186 383.658V360.718H63.5984V383.658L79.6921 400.863V322.137H148.943V411.291L164.549 427.975H179.18L185.276 421.457L202.101 439.445V346.12H218.195V356.026H257.697V400.863H266.963V383.658H285.983L302.077 400.863H324.023V337.256H352.796V250.709H384.983V283.034H419.121V331H449.358V366.974H472.186V248.709L484.959 235.054H505.988L527.632 258.193V279.645L552.747 306.496V190.743H599.809V284.337L612.245 271.043V172.778H618.097V107.306H623.95L623.95 40.3557H654.674L654.674 107.306H665.891V172.778H681.984V210.317H686.861V172.778H691.494L691.494 39.4006L698.078 32.3621H711.489V14.3749L724.413 0.558594H739.043V32.3621H754.162L754.162 167.043H759.526V184.248H775.62V119.797H793.664V66.3365H797.566V2.884H805.369V66.3365H815.61V2.884H823.901V47.8504H828.778V163.552H846.955L859.768 177.25V245.525H880.755V203.193L890.839 192.412H926.816L938.808 205.233V256.738L946.712 265.188V344.88H955.979V337.013L971.515 353.622V255.728H1004.22L1011.85 263.886V307.156H1018.12V301.038L1029.84 313.567V368.19L1049.19 378.994V425.614L1063.36 410.462V307.156L1074.81 294.919H1110.79L1122.24 307.156V395.052H1127.69V381.94H1160.39V390.39H1169.66V376.381L1185.74 366.497V403.356H1198.28V376.987H1201.28V392.138H1205.09V432.057H1211.63V407.581H1241.07V432.057H1245.43V413.117L1250.61 407.581L1263.96 421.859H1273.09V403.356L1290.4 421.859H1305.94V413.117H1312.2V392.138L1326.38 376.987V381.649H1337.28V390.099H1346.68V369.265L1356.09 379.318V408.747H1370.8V392.138H1392.68V337.116L1401.47 327.719V307.469L1407.05 301.495V291.006H1410.17V299.587L1413.87 295.638V270.609H1424.25V295.638L1434.09 306.157V390.122H1440V465.538Z" fill="#535353"/>
<path d="M1440 479H0V419.572L16.8346 402.028V380.587H36.3413V402.028L43.6563 409.338L50.9713 402.028V380.587H63.6506V402.028L79.7436 418.109V344.527H148.992V427.855L164.598 443.449H179.228L185.323 437.358L202.148 454.17V366.943H218.241V376.201H257.742V418.109H267.008V402.028H286.027L302.12 418.109H324.065V358.659H352.837V277.766H385.023V307.979H419.16V352.811H449.395V386.435H472.223V265.004L484.995 252.241H506.023L527.666 273.868V304.812L552.78 329.908V201.747H599.84V309.197L612.248 296.771V184.691H618.098V115.982H623.98V49.7089H654.703V115.982H665.919V184.691H682.012V219.777H686.889V184.691H691.488V45.0795L698.105 38.5008H711.516V21.689L724.439 8.77539H739.069V38.5008H754.187V179.331H759.551V195.412H775.644V130.601H793.688V71.6374H797.589L797.568 11.2119H805.392V71.6374H815.633V11.2119H823.923V53.607H828.8V171.888H846.977L859.789 184.691V252.241H880.775V208.939L890.859 198.862H926.834L938.826 210.845V272.938L946.73 280.836V356.546H955.996V349.193L971.531 364.716V266.402H1004.24L1011.87 274.027V315.695H1018.14V309.976L1029.85 321.686V378.333L1049.21 397.669V441.243L1063.38 427.081V315.695L1074.82 304.257H1110.8L1122.25 315.695V405.022H1127.7V392.767H1160.4V400.665H1169.67V378.333H1185.75V412.784H1198.29V388.137H1201.28V402.299H1205.1V439.609H1211.64V416.732H1241.07V439.609H1245.44V421.907L1250.61 416.732L1263.97 430.077H1273.1V412.784L1290.4 430.077H1305.94V421.907H1312.21V402.299L1326.38 388.137V392.494H1337.28V400.392H1346.68V380.92L1356.09 390.316V417.822H1370.8V402.299H1392.68V341.908L1401.47 333.125V314.197L1407.05 308.614V298.81H1410.17V306.83L1413.87 303.14V279.746H1424.25V303.14L1434.09 312.971V408.07H1440V479Z" fill="black"/>
</svg>
