<svg width="432" height="101" viewBox="0 0 432 101" fill="none" xmlns="http://www.w3.org/2000/svg">
<path d="M57.0811 13.5828C45.588 -2.21745 18.3878 22.6116 -0.000976562 29.3831C-0.000976562 41.6723 1.60806 66.2506 8.04428 66.2506C16.0895 66.2506 18.0049 80.5461 26.4331 80.5461H57.0811C78.1515 80.5461 72.4052 80.5461 85.4306 89.9511C98.456 99.356 106.118 99.356 124.124 99.356C142.13 99.356 133.701 89.9511 148.259 80.5461C162.817 71.1412 160.135 80.5461 166.648 66.2506C173.161 51.9551 200.361 80.5461 212.237 80.5461C224.113 80.5461 227.944 104.247 241.353 99.356C254.761 94.4654 249.014 88.8225 258.209 80.5461C267.404 72.2698 270.468 80.5461 289.623 80.5461H349.004C386.548 80.5461 378.12 82.8033 396.125 80.5461C414.131 78.289 414.131 78.289 426.39 66.2509C436.197 56.6203 430.476 49.698 426.39 47.4408C406.597 47.4408 365.094 46.0865 357.432 40.6692C347.854 33.8976 355.133 29.3831 349.004 13.5828C344.1 0.942608 321.931 8.31608 311.46 13.5828H249.014C226.156 13.5828 176.379 16.7429 160.135 29.3831C143.892 42.0234 110.715 42.1739 96.1573 40.6692C86.9629 36.9072 66.2755 26.2231 57.0811 13.5828Z" fill="#DCE2ED"/>
<path d="M57.1332 6.97933C45.6401 -8.82096 18.44 16.0081 0.0511466 22.7796C0.0511466 35.0688 1.66019 59.6471 8.0964 59.6471C16.1417 59.6471 18.057 73.9426 26.4852 73.9426H57.1332C78.2036 73.9426 72.4573 73.9426 85.4827 83.3476C98.5081 92.7525 106.17 92.7525 124.176 92.7525C142.182 92.7525 133.753 83.3476 148.311 73.9426C162.869 64.5377 160.187 73.9426 166.7 59.6471C173.213 45.3516 200.413 73.9426 212.289 73.9426C224.165 73.9426 227.996 97.6431 241.405 92.7525C254.813 87.8619 249.067 82.219 258.261 73.9426C267.456 65.6663 270.52 73.9426 289.675 73.9426H349.056C386.6 73.9426 378.172 76.1998 396.177 73.9426C414.183 71.6855 414.183 71.6854 426.442 59.6474C436.249 50.0168 430.529 43.0944 426.442 40.8373C406.649 40.8373 365.146 39.4829 357.484 34.0657C347.907 27.2941 355.185 22.7796 349.056 6.97933C344.152 -5.66091 321.983 1.71256 311.512 6.97933H249.067C226.208 6.97933 176.431 10.1394 160.187 22.7796C143.944 35.4198 110.767 35.5704 96.2094 34.0657C87.015 30.3036 66.3276 19.6196 57.1332 6.97933Z" fill="#ABC9FF"/>
</svg>
