<svg width="745" height="226" viewBox="0 0 745 226" fill="none" xmlns="http://www.w3.org/2000/svg">
<path d="M536.337 11.1527C541.293 11.6839 546.45 12.141 551.607 12.3551C559.845 12.3551 578.321 14.251 586.318 21.8347C596.316 31.3143 596.038 50.544 609.09 64.357C622.142 78.17 641.581 71.6698 694.9 64.357C748.218 57.0443 728.501 78.9826 740.443 92.7955C752.384 106.609 734.888 121.505 707.674 132.068C680.459 142.631 654.633 144.797 647.135 154.277C639.637 163.756 676.294 167.006 718.782 193.549C761.27 220.092 703.508 199.778 694.9 199.778C686.291 199.778 664.352 207.091 623.253 207.091C582.153 207.091 587.429 199.778 563.547 207.091C539.665 214.404 535.222 224.154 489.679 224.154C444.136 224.154 460.243 224.154 435.249 215.758C410.255 207.362 413.588 215.758 389.707 215.758C365.825 215.758 364.713 216.842 325.558 224.154C286.403 231.467 309.451 215.758 309.451 199.778C309.451 183.799 294.177 195.445 277.793 193.549C261.409 191.653 244.191 185.965 240.025 173.236C235.86 160.506 255.021 154.277 277.793 144.797C300.565 135.318 333.333 132.068 309.451 121.505C285.568 110.942 277.793 117.171 255.021 113.921C232.249 110.671 195.316 132.068 180.32 144.797C165.323 157.527 135.61 167.006 112.838 173.236C90.0667 179.465 85.6234 180.819 68.406 177.569C51.1885 174.319 31.4724 174.319 25.0852 167.006C18.6981 159.694 12.0333 144.797 13.1441 132.068C14.2549 119.338 20.642 110.942 31.4724 99.2958C42.3027 87.6495 87.8457 91.7122 103.119 78.9826C118.393 66.2529 103.119 56.7734 116.171 43.2313C129.223 29.6891 172.544 50.544 195.316 56.7734C213.533 61.7569 226.048 58.8499 230.029 56.7734C241.599 52.2594 267.352 43.2313 277.793 43.2313C290.845 43.2313 310.562 64.357 325.558 78.9826C340.554 93.6081 374.433 87.6495 389.707 84.3994C397.544 82.7318 404.651 67.195 412.525 68.6757C429.011 71.7759 446.817 75.8895 454.966 80.0659C471.351 88.4621 486.347 94.9623 499.399 99.2958C512.452 103.629 523.281 102.275 535.222 99.2958C547.163 96.3165 538.555 85.4828 535.222 78.9826C531.89 72.4823 505.786 71.6698 489.679 64.357C473.572 57.0443 460.243 49.4607 460.243 43.2313C460.243 37.0019 456.078 31.585 460.243 21.8347C460.652 20.8783 461.264 20.1199 462.044 19.52C481.929 4.22863 511.396 8.47964 536.337 11.1527Z" fill="#DCE2ED"/>
<path d="M523.927 2.78165C528.883 3.31279 534.04 3.76995 539.198 3.98399C547.435 3.98399 565.911 5.87991 573.909 13.4636C583.906 22.9432 583.628 42.1729 596.68 55.9859C609.732 69.7989 629.171 63.2987 682.49 55.9859C735.808 48.6732 716.092 70.6115 728.033 84.4244C739.974 98.2374 722.479 113.134 695.264 123.697C668.049 134.26 642.223 136.426 634.725 145.906C627.227 155.385 663.884 158.635 706.372 185.178C748.86 211.721 691.099 191.407 682.49 191.407C673.881 191.407 651.943 198.72 610.843 198.72C569.743 198.72 575.02 191.407 551.137 198.72C527.255 206.033 522.812 215.783 477.269 215.783C431.726 215.783 447.834 215.783 422.839 207.387C397.845 198.991 401.179 207.387 377.297 207.387C353.415 207.387 352.303 208.47 313.148 215.783C273.993 223.096 297.041 207.387 297.041 191.407C297.041 175.428 281.767 187.074 265.384 185.178C249 183.282 231.781 177.594 227.616 164.865C223.45 152.135 242.611 145.906 265.384 136.426C288.156 126.947 320.923 123.697 297.041 113.134C273.159 102.571 265.384 108.8 242.611 105.55C219.839 102.3 182.906 123.697 167.91 136.426C152.913 149.156 123.2 158.635 100.428 164.865C77.657 171.094 73.2138 172.448 55.9963 169.198C38.7788 165.948 19.0627 165.948 12.6756 158.635C6.28845 151.323 -0.376374 136.426 0.73443 123.697C1.84523 110.967 8.23236 102.571 19.0627 90.9247C29.893 79.2784 75.436 83.3411 90.7096 70.6115C105.983 57.8818 90.7096 48.4023 103.762 34.8602C116.813 21.318 160.135 42.1729 182.906 48.4023C201.124 53.3858 213.639 50.4788 217.619 48.4023C229.19 43.8883 254.942 34.8602 265.384 34.8602C278.435 34.8602 298.152 55.9859 313.148 70.6115C328.144 85.237 362.023 79.2784 377.297 76.0283C385.134 74.3607 392.241 58.8239 400.116 60.3046C416.602 63.4048 434.407 67.5184 442.557 71.6948C458.941 80.091 473.937 86.5912 486.99 90.9247C500.042 95.2582 510.871 93.9039 522.812 90.9247C534.754 87.9454 526.145 77.1117 522.812 70.6115C519.48 64.1112 493.376 63.2987 477.269 55.9859C461.163 48.6732 447.834 41.0896 447.834 34.8602C447.834 28.6308 443.668 23.2139 447.834 13.4636C448.242 12.5072 448.854 11.7488 449.634 11.1489C469.519 -4.14246 498.986 0.108543 523.927 2.78165Z" fill="#ABC9FF"/>
</svg>
