<svg width="373" height="751" viewBox="0 0 373 751" fill="none" xmlns="http://www.w3.org/2000/svg">
<path d="M10.6209 -332C14.6962 -331.981 23.4649 -331.366 25.9373 -329.058C29.0278 -326.174 9.24863 -290.324 14.8115 -282.083C20.3744 -273.842 75.5912 -263.334 79.9179 -250.354C84.2446 -237.374 77.0334 -226.454 79.9179 -219.861C82.8023 -213.268 81.1541 -213.886 86.923 -211.002C92.6919 -208.117 107.32 -214.71 119.476 -203.79C131.632 -192.871 129.778 -188.544 129.778 -184.629C129.778 -180.715 128.954 -174.946 138.225 -170.001C147.497 -165.056 167.894 -153.312 172.427 -132.503C184.926 -124.949 210.337 -108.603 211.985 -103.659C214.045 -97.4775 205.186 -86.1458 199.417 -79.1406C199.073 -77.9044 199.293 -74.4843 202.919 -70.6933C206.546 -66.9023 222.836 -57.4385 230.528 -53.1805V-45.5573H168.924L179.638 -31.135L160.889 -21.0394C154.914 -28.1819 139.379 -42.302 125.039 -41.6427C110.699 -40.9834 106.153 -34.3628 105.672 -31.135C106.839 -28.9373 109.216 -23.0173 109.381 -16.9187C109.587 -9.2955 108.968 -5.79294 112.059 -2.49643C115.149 0.800079 126.687 6.56897 125.039 12.5439C123.391 18.5189 135.547 20.7853 138.019 21.6094C139.997 22.2687 159.447 32.4604 168.924 37.4739C168.306 34.8642 167.441 29.109 168.924 26.9662C170.778 24.2878 181.698 24.9059 184.376 23.2577C187.055 21.6094 198.387 10.8957 201.683 9.86554C204.98 8.83536 206.834 15.6345 209.512 15.6345C212.191 15.6345 230.734 13.3681 236.297 19.137C241.86 24.9059 247.01 39.3282 250.307 41.5946C253.603 43.8609 265.965 39.1222 268.644 46.1273C271.322 53.1324 273.177 57.2531 277.915 56.0169C282.654 54.7807 283.066 65.2884 286.775 66.3185C290.483 67.3487 303.875 76.208 310.469 71.2633C317.062 66.3185 327.157 56.0169 334.574 56.0169C334.918 51.2094 339.066 41.5946 352.911 41.5946C366.757 41.5946 371.454 43.5175 372.072 44.479C368.707 45.7152 361.935 49.3002 361.771 53.7505C361.565 59.3134 352.911 61.3737 347.142 59.3134C346.456 61.6484 344.464 66.3185 341.992 66.3185C342.678 71.744 342.527 83.5428 336.429 87.3338C328.805 92.0726 330.866 98.2536 297.282 96.3993C299.068 98.5283 303.422 104.352 306.554 110.616C306.279 113.569 306.348 120.217 308.82 123.184C311.293 126.15 304.768 137.743 301.197 143.169L290.071 152.852C292.956 153.676 298.972 156.025 299.961 158.827C301.197 162.33 294.81 168.923 296.046 172.837C297.035 175.969 308.546 188.839 314.177 194.883L364.449 199.828L368.982 207.245L315.619 203.33C307.927 204.36 292.544 204.608 292.544 197.355C292.544 188.29 291.307 186.023 286.981 189.114C282.654 192.205 282.654 201.476 267.614 203.33C270.91 210.404 275.525 226.488 267.614 234.235C257.724 243.919 254.016 247.215 238.151 246.185C238.014 250.237 234.772 258.836 222.905 260.813C208.07 263.286 201.889 262.256 188.497 260.813C175.105 259.371 166.452 257.105 162.331 258.959C162.198 259.019 162.072 259.075 161.953 259.128C163.618 259.666 167.115 261.428 171.808 265.552C178.608 271.527 185.407 279.562 190.557 279.356C195.708 279.15 189.733 291.306 162.331 286.774C134.929 282.241 141.522 268.643 133.074 271.939C124.627 275.236 115.355 276.884 109.381 278.12C103.406 279.356 97.0186 284.713 95.3703 290.688C94.0517 295.468 86.1675 298.311 82.3903 299.135C91.5244 302.981 109.916 312.981 110.411 322.211C111.029 333.749 101.551 352.086 93.31 354.146C85.0687 356.207 79.0937 352.91 73.3248 357.443C67.5559 361.976 69.8223 372.277 79.9179 375.574C90.0135 378.87 84.8627 404.006 73.3248 409.363C73.7369 412.728 81.731 420.654 110.411 425.434C116.76 439.59 129.926 472.188 131.796 489.326H137.639C136.34 494.39 136.937 506.388 149.714 513.866C154.388 518.411 163.659 528.201 163.347 531.005C163.035 533.81 192.301 512.178 206.973 501.012C219.438 503.09 244.289 512.62 243.978 534.121C251.638 536.718 267.271 544.405 268.518 554.376C269.764 564.348 269.037 580.344 268.518 587.096C267.998 591.251 261.974 599.016 242.03 596.834C237.875 599.561 230.189 606.183 232.682 610.857C235.175 615.531 247.224 616.18 252.937 615.921C258.13 617.868 268.518 622.776 268.518 626.827C276.827 619.686 296.174 609.688 307.08 626.827C320.713 648.251 308.485 666.201 296.32 683.581C284.154 700.96 255.274 680.105 243.978 690.532C232.682 700.96 239.429 714.864 243.978 727.029C248.526 739.195 233.754 733.981 226.802 744.409C219.85 754.836 198.995 751.36 198.126 739.195C197.257 727.029 189.436 710.519 184.222 713.995C179.008 717.47 170.339 714.864 166.843 727.029C163.347 739.195 147.725 751.36 145.119 739.195C142.512 727.029 145.119 721.815 145.119 706.174C145.119 690.532 129.426 669.677 119.918 676.629C110.411 683.581 103.408 687.925 100.801 694.877C98.7154 700.439 94.938 697.194 93.31 694.877H79.9179C77.7202 699.222 73.3248 706.174 73.3248 699.222C73.3248 690.532 64.3041 676.629 49.5316 676.629C34.7591 676.629 28.6763 690.532 23.4625 690.532H0.000222206V79.645L23.9794 57.9357H31.4636C35.5799 57.9357 44.9352 50.2852 49.0515 48.2062C53.1678 46.1273 53.542 51.5742 61.0262 52.6968C68.5104 53.8194 90.0482 54.942 95.3703 62.8004C99.628 69.0872 114.663 58.6841 121.648 52.6968C110.422 48.7052 87.5951 39.5994 86.0983 35.1089C84.2272 29.4957 94.3309 8.53995 90.2146 0.681549C86.0983 -7.17685 45.6836 -45.5573 41.9415 -45.5573H0.000222206V-332H10.6209Z" fill="#ABC9FF"/>
<path d="M96.2355 21.1906C91.9251 20.0296 89.9217 15.6194 90.6732 11.2191C91.3947 6.99381 91.5213 3.17851 90.2144 0.683502C88.7418 -2.12778 82.6237 -8.8453 75.2011 -16.3144C70.7485 -20.7949 66.5855 -26.5824 67.7627 -32.7884C68.2246 -35.2237 69.4092 -37.2846 71.8563 -38.5825C74.8254 -40.1572 78.9968 -41.3767 84.738 -41.6407C89.2831 -41.8497 93.9483 -40.5739 98.391 -38.5062C104.658 -35.5893 107.624 -28.2761 108.881 -21.4787C109.153 -20.0085 109.338 -18.4684 109.38 -16.9168C109.416 -15.5825 109.427 -14.3744 109.437 -13.2715C109.484 -8.07373 109.509 -5.21399 112.059 -2.49448C112.906 -1.59097 114.387 -0.50177 116.058 0.726532C120.483 3.97977 126.235 8.20853 125.039 12.5459C123.614 17.7101 132.502 20.1039 136.536 21.1906C137.17 21.3611 137.683 21.4995 138.019 21.6114C139.69 22.1685 139.332 24.3596 137.581 24.5537C137.562 24.5558 137.542 24.558 137.522 24.5602C133.752 24.978 129.689 25.4282 128.623 26.9682C126.247 30.4003 122.845 34.4256 119.147 32.4889C109.796 27.5913 99.1539 22.0899 97.7181 21.6114C97.3826 21.4995 96.8688 21.3611 96.2355 21.1906Z" fill="#DCE2ED"/>
<path d="M61.3851 60.6298C62.025 55.8766 57.621 52.3508 53.8862 49.3419C52.2847 48.0517 51.1582 47.1441 49.0512 48.2082C47.6841 48.8987 45.7392 50.2037 43.6002 51.6389C41.7225 52.8987 42.2864 55.9826 44.4537 56.6273C49.1499 58.0241 53.1567 59.9783 55.0693 62.8024C58.3761 67.6851 60.7503 65.3461 61.3851 60.6298Z" fill="#DCE2ED"/>
<path d="M9.23062 676.631C5.65542 676.631 3.97587 680.621 6.43616 683.215C10.7117 687.723 16.7587 690.534 23.4622 690.534C27.0898 690.534 27.3178 685.034 24.6107 682.619C20.6713 679.105 15.4628 676.631 9.23062 676.631Z" fill="#DCE2ED"/>
<path d="M76.2584 679.064C71.4318 682.544 71.1413 689.205 72.705 694.946C73.1142 696.448 73.3246 697.897 73.3246 699.224C73.3246 702.917 74.5652 702.686 76.0577 701.007C79.015 697.679 82.7242 694.879 87.1761 694.879C88.9018 694.879 90.5685 695.685 92.2169 696.481C94.2412 697.46 96.238 698.425 98.283 697.869C99.2158 697.615 100.103 696.74 100.801 694.879C101.301 693.545 101.416 692.057 100.783 690.78C95.4894 680.106 86.1109 671.883 79.6173 676.631C78.4594 677.477 77.3386 678.285 76.2584 679.064Z" fill="#DCE2ED"/>
<path d="M150.277 717.089C147.935 713.895 144.76 716.342 144.431 720.29C143.896 726.705 143.489 731.593 145.118 739.197C146.548 745.868 151.891 745.223 157.002 741.273C157.627 740.79 157.881 739.985 157.825 739.197C157.276 731.52 153.96 722.113 150.277 717.089Z" fill="#DCE2ED"/>
<path d="M200.032 736.125C198.797 736.627 198.031 737.867 198.126 739.197C198.995 751.362 219.85 754.838 226.802 744.411C229.803 739.909 234.261 738.322 237.994 736.994C242.907 735.246 246.562 733.945 243.978 727.031C243.596 726.01 243.198 724.976 242.798 723.934C240.638 718.316 238.376 712.432 237.885 706.765C237.4 701.171 231.637 690.059 226.112 689.059C217.169 687.44 208.691 685.906 203.677 690.534C193.329 700.087 198.123 712.556 202.497 723.934C202.898 724.976 203.295 726.01 203.677 727.031C205.829 732.787 203.656 734.653 200.032 736.125Z" fill="#DCE2ED"/>
<path d="M256.019 683.582C255.098 684.898 256.092 687.519 257.688 687.689C260.469 687.983 263.414 688.517 266.412 689.059C277.618 691.088 289.554 693.248 296.319 683.582C308.485 666.203 320.713 648.253 307.08 626.829C300.958 617.209 292.177 616.139 284.182 618.314C277.377 620.165 260.914 619.145 254.382 616.488C253.349 616.068 252.364 615.957 251.249 615.969C245.129 616.033 234.95 615.112 232.681 610.859C231.634 608.896 232.383 606.589 233.911 604.372C237.902 598.583 245.617 597.776 252.645 597.041L253.145 596.988C264.332 595.814 268.111 590.35 268.517 587.098C269.037 580.346 269.764 564.35 268.517 554.378C268.105 551.082 266.121 548.036 263.373 545.34C258.809 540.864 254.399 535.678 249.977 530.477C245.093 524.734 240.194 518.974 235.058 514.133C230.651 509.979 225.146 506.895 219.814 504.725C211.897 501.504 203.13 503.961 196.272 509.063C195.821 509.398 195.367 509.735 194.911 510.074C193.595 511.05 193.564 513.008 194.757 514.133C199.894 518.974 204.792 524.734 209.676 530.477C214.098 535.678 218.508 540.864 223.072 545.34C225.821 548.036 227.805 551.082 228.217 554.378C229.463 564.35 228.736 580.346 228.217 587.098C227.81 590.35 224.031 595.814 212.844 596.988L212.344 597.041C205.316 597.776 197.601 598.583 193.611 604.372C192.082 606.589 191.334 608.896 192.381 610.859C194.649 615.112 204.828 616.033 210.948 615.969C212.063 615.957 213.048 616.068 214.081 616.488C220.614 619.145 237.076 620.165 243.881 618.314C251.876 616.139 260.657 617.209 266.779 626.829C280.412 648.253 268.184 666.203 256.019 683.582Z" fill="#DCE2ED"/>
<path d="M147.592 515.238C148.529 514.555 148.538 513.172 147.588 512.507C138.957 506.464 136.982 498.208 137.179 492.735C137.242 490.99 135.939 489.328 134.193 489.328C132.829 489.328 131.689 488.311 131.482 486.963C129.558 474.45 122.804 455.511 116.876 440.737C113.011 431.105 104.161 424.735 94.1879 421.861C93.3379 421.616 92.5196 421.368 91.732 421.119C80.0553 417.419 82.0722 406.365 84.2534 394.409C84.4665 393.241 84.6811 392.065 84.8847 390.886C86.1055 383.816 84.7796 377.163 79.9176 375.576C69.822 372.279 67.5557 361.977 73.3246 357.445C76.7392 354.762 80.2259 354.822 84.212 354.89C86.9605 354.938 89.9464 354.989 93.3098 354.148C101.551 352.088 111.029 333.751 110.41 322.213C110.122 316.82 103.723 311.165 96.6313 306.627C92.436 303.943 94.0457 295.491 95.3701 290.69C95.8943 288.79 96.8977 286.952 98.2147 285.29C100.536 282.36 100.978 277.492 98.8289 274.433C97.1247 272.007 96.1522 270.623 92.7733 271.941C85.3594 274.834 77.3107 276.458 71.4129 277.648C70.5908 277.813 69.8105 277.971 69.0795 278.122C63.1046 279.358 56.7176 284.715 55.0693 290.69C53.7449 295.491 52.1352 303.943 56.3305 306.627C63.4224 311.165 69.8208 316.82 70.1097 322.213C70.7278 333.751 61.2503 352.088 53.009 354.148C49.6456 354.989 46.6597 354.938 43.9113 354.89C39.9251 354.822 36.4384 354.762 33.0238 357.445C27.2549 361.977 29.5213 372.279 39.6169 375.576C44.4789 377.163 45.8047 383.816 44.5839 390.886C44.3803 392.065 44.1657 393.241 43.9526 394.409C41.7714 406.365 39.7545 417.419 51.4313 421.119C52.2188 421.368 53.0371 421.616 53.8871 421.861C63.8598 424.735 72.7107 431.105 76.5753 440.737C82.5032 455.511 89.2577 474.45 91.1813 486.963C91.3885 488.311 92.528 489.328 93.8922 489.328C95.6381 489.328 96.941 490.99 96.8782 492.735C96.6809 498.208 98.6558 506.464 107.287 512.507C108.659 513.468 110.022 514.452 111.202 515.641C116.108 520.589 123.321 528.528 123.046 531.007C122.844 532.82 135.005 524.421 147.592 515.238Z" fill="#DCE2ED"/>
<path d="M150.256 279.358C152.931 279.251 153.064 284.616 155.644 285.329C157.615 285.873 159.831 286.362 162.331 286.776C189.733 291.308 195.708 279.152 190.557 279.358C186.621 279.516 181.723 274.861 176.598 269.991C175.016 268.487 173.412 266.963 171.808 265.554C169.256 263.311 165.885 262.371 162.492 262.189C159.014 262.002 155.475 261.613 151.234 261.147C150.261 261.04 149.251 260.929 148.196 260.815C144.176 260.382 140.583 259.875 137.411 259.428C130.017 258.384 124.914 257.663 122.03 258.961C120.842 259.496 121.039 259.523 121.802 259.629C122.431 259.716 123.445 259.856 124.384 260.377C126.214 261.393 128.637 263.031 131.507 265.554C133.111 266.963 134.715 268.487 136.297 269.991C141.422 274.861 146.321 279.516 150.256 279.358Z" fill="#DCE2ED"/>
<path d="M188.381 259.37C187.672 259.6 187.756 260.736 188.497 260.815C189.552 260.929 190.561 261.04 191.534 261.147C202.916 262.398 209.238 263.093 222.904 260.815C235.238 258.76 249.954 248.927 259.864 241.301C262.22 239.488 264.637 237.152 267.613 234.237C269.439 232.45 270.598 230.218 271.259 227.756C271.883 225.436 272.476 222.835 273.101 220.097C273.972 216.277 274.904 212.19 276.065 208.226C276.761 205.85 275.103 203.411 272.636 203.626C264.533 204.33 252.243 203.84 252.243 197.357C252.243 188.292 251.006 186.025 246.68 189.116C238.54 194.93 235.399 208.7 232.8 220.097C232.176 222.835 231.582 225.436 230.958 227.756C230.297 230.218 229.138 232.45 227.313 234.237C224.336 237.152 221.919 239.488 219.563 241.301C211.163 247.765 199.309 255.815 188.381 259.37Z" fill="#DCE2ED"/>
<path d="M305.723 198.017C298.23 197.28 293.107 184.74 286.981 189.116C282.892 192.036 277.968 194.763 273.586 192.306C270.761 190.722 268.197 188.672 266.024 186.192C261.156 180.636 256.367 174.81 255.745 172.839C255.117 170.849 256.458 168.167 257.767 165.551C259.033 163.02 260.268 160.551 259.66 158.829C259.4 158.092 259.107 157.336 258.81 156.573C257.174 152.356 255.45 147.911 258.709 145.074L260.126 143.841C260.637 143.396 261.084 142.888 261.449 142.317C265.094 136.613 270.869 126.005 268.519 123.185C266.483 120.742 266.077 115.802 266.151 112.485C266.178 111.262 265.767 109.642 265.179 108.569C262.422 103.535 266.38 96.8701 272.116 96.67C285.682 96.1969 288.901 93.34 292.321 90.3047C293.444 89.3083 294.588 88.2926 296.128 87.3358C298.251 86.0156 299.654 83.7243 300.551 81.0692C302.028 76.6988 306.778 74.0331 310.468 71.2652C311.255 70.6749 312.092 70.0083 312.969 69.292C315.845 66.9413 318.914 63.9796 322.133 60.8737C331.491 51.8446 342.113 41.5965 352.911 41.5965C354.779 41.5965 356.48 41.6315 358.027 41.6944C363.499 41.9169 363.098 44.3043 362.392 48.5107C362.138 50.027 361.844 51.7797 361.77 53.7525C361.612 58.0294 356.46 60.236 351.465 60.0912C349.072 60.0219 346.55 61.4824 345.328 63.541C345.252 63.6702 345.173 63.8017 345.093 63.9355C343.842 66.0353 342.268 68.6751 342.27 71.0329C342.276 76.8649 341.089 84.4387 336.428 87.3358C334.889 88.2926 333.745 89.3083 332.622 90.3047C329.202 93.34 325.982 96.1969 312.417 96.67C306.681 96.8701 302.723 103.535 305.48 108.569C306.067 109.642 306.479 111.262 306.452 112.485C306.378 115.802 306.784 120.742 308.82 123.185C311.169 126.005 305.395 136.613 301.75 142.317C301.385 142.888 300.938 143.396 300.426 143.841L299.01 145.074C295.751 147.911 297.475 152.356 299.111 156.573C299.407 157.336 299.7 158.092 299.961 158.829C300.568 160.551 299.333 163.02 298.068 165.551C296.759 168.167 295.418 170.849 296.046 172.839C296.668 174.81 301.456 180.636 306.325 186.192C311.3 191.87 318.322 195.293 325.836 196.032L362.687 199.656C363.796 199.766 364.791 200.389 365.372 201.341C366.882 203.81 364.965 206.952 362.078 206.74L328.307 204.263C326.839 204.155 325.839 202.597 325.072 201.341C324.49 200.389 323.496 199.766 322.386 199.656L305.723 198.017Z" fill="#DCE2ED"/>
<path d="M281.832 60.8737C282.313 60.4105 282.456 59.6919 282.157 59.0957C281.129 57.048 279.903 55.5003 277.915 56.0188C273.176 57.255 271.322 53.1344 268.644 46.1292C266.951 41.7033 261.394 41.9654 256.699 42.1868C253.963 42.3158 251.52 42.431 250.307 41.5965C248.738 40.5177 246.748 36.6843 244.494 32.341C242.013 27.5602 239.211 22.1617 236.297 19.1389C231.541 14.2073 217.3 15.1478 211.593 15.5247C210.624 15.5887 209.901 15.6364 209.512 15.6364C208.313 15.6364 207.279 14.274 206.207 12.8613C204.885 11.1182 203.504 9.29846 201.683 9.86749C200.474 10.2453 198.184 11.9258 195.636 13.9839C194.082 15.2398 194.609 17.7004 195.996 19.1389C198.911 22.1617 201.712 27.5602 204.193 32.341C206.447 36.6843 208.437 40.5177 210.006 41.5965C211.22 42.431 213.662 42.3158 216.398 42.1868C221.093 41.9654 226.651 41.7033 228.343 46.1292C231.021 53.1344 232.876 57.255 237.614 56.0188C240.267 55.3268 241.564 58.3152 242.842 61.2609C243.848 63.5771 244.841 65.867 246.474 66.3205C247.336 66.56 248.722 67.223 250.425 68.0374C256.044 70.7247 265.108 75.06 270.168 71.2652C270.955 70.6749 271.792 70.0083 272.668 69.292C275.544 66.9413 278.613 63.9796 281.832 60.8737Z" fill="#DCE2ED"/>
<path d="M139.982 -45.5553C134.956 -45.5553 137.706 -39.2289 142.083 -36.758C146.851 -34.0662 151.237 -30.6225 154.777 -27.3678C158.551 -23.8986 164.128 -22.7816 168.641 -25.2118L173.82 -28.0007C176.887 -29.6522 177.775 -33.6404 175.698 -36.4366C172.898 -40.2056 175.588 -45.5553 180.283 -45.5553H139.982Z" fill="#DCE2ED"/>
<path d="M185.431 -45.5553H225.731C228.38 -45.5553 230.528 -47.7027 230.528 -50.3515C230.528 -52.0959 229.581 -53.7 228.062 -54.5569C219.79 -59.2218 206.193 -67.2686 202.919 -70.6913C202.179 -71.4656 201.58 -72.2245 201.099 -72.9524C198.711 -76.5698 200.885 -80.8332 203.515 -84.2786C208.55 -90.8718 213.593 -98.8328 211.985 -103.657C210.752 -107.356 196.219 -117.436 183.743 -125.442C176.576 -130.041 171.862 -137.524 167.487 -144.83C159.538 -158.103 145.477 -166.131 138.225 -169.999C129.632 -174.582 129.711 -179.873 129.769 -183.739C129.773 -184.044 129.778 -184.341 129.778 -184.627C129.778 -185.07 129.801 -185.519 129.826 -185.981C130.018 -189.606 130.256 -194.105 119.476 -203.788C111.494 -210.958 102.447 -210.578 95.5416 -210.288C91.9298 -210.136 88.9039 -210.009 86.9228 -211C82.4922 -213.215 82.4365 -213.364 81.3425 -216.301C81.012 -217.188 80.5868 -218.33 79.9176 -219.859C78.6524 -222.751 79.3297 -226.476 80.1236 -230.842C81.1395 -236.429 82.3464 -243.066 79.9176 -250.352C77.4338 -257.803 58.1783 -264.44 41.1737 -270.301C28.5576 -274.649 17.1806 -278.571 14.8113 -282.081C11.5267 -286.947 17.077 -301.438 21.5381 -313.085C24.6325 -321.164 27.2028 -327.875 25.9371 -329.056C23.4647 -331.364 14.696 -331.979 10.6207 -331.998C4.75503 -331.998 0 -327.243 0 -321.377V-271.525C0 -270.973 0.350547 -270.481 0.872904 -270.301C17.8775 -264.44 37.133 -257.803 39.6169 -250.352C42.0456 -243.066 40.8387 -236.429 39.8228 -230.842C39.0289 -226.476 38.3516 -222.751 39.6169 -219.859C40.286 -218.33 40.7112 -217.188 41.0417 -216.301C42.1357 -213.364 42.1914 -213.215 46.622 -211C48.6031 -210.009 51.629 -210.136 55.2408 -210.288C62.1464 -210.578 71.1937 -210.958 79.1751 -203.788C89.9554 -194.105 89.7171 -189.606 89.525 -185.981C89.5005 -185.519 89.4768 -185.07 89.4768 -184.627C89.4768 -184.341 89.4724 -184.044 89.4678 -183.739C89.4102 -179.873 89.3314 -174.582 97.9241 -169.999C105.177 -166.131 119.237 -158.103 127.186 -144.83C131.561 -137.524 136.276 -130.041 143.442 -125.442C155.918 -117.436 170.451 -107.356 171.684 -103.657C173.292 -98.8328 168.249 -90.8718 163.215 -84.2786C160.584 -80.8332 158.41 -76.5698 160.799 -72.9524C161.279 -72.2245 161.878 -71.4656 162.618 -70.6913C165.892 -67.2686 179.489 -59.2218 187.761 -54.5569C189.281 -53.7 190.227 -52.0959 190.227 -50.3515C190.227 -47.7027 188.079 -45.5553 185.431 -45.5553Z" fill="#DCE2ED"/>
</svg>
