<svg width="530" height="185" viewBox="0 0 530 185" fill="none" xmlns="http://www.w3.org/2000/svg">
<path d="M78.1599 176.522C63.7431 176.522 50.879 169.823 51.7661 158.803C39.3455 155.85 13.4397 148.733 9.18095 143.893C3.85753 137.842 29.8083 134.385 14.5044 119.691C-0.799577 104.997 13.839 108.671 29.8083 99.811C45.7776 90.9515 93.242 112.993 124.293 119.691C155.345 126.39 147.804 114.505 144.033 104.133C140.263 93.7602 130.696 91.9873 130.696 85.7656C130.696 59.2077 154.014 77.5542 163.108 68.6951C172.201 59.836 181.295 57.026 213.012 40.6039C244.729 24.1818 235.635 57.026 241.845 57.026C248.056 57.026 281.103 53.1369 303.061 45.1417C325.019 37.1465 320.583 40.6039 338.77 45.1417C356.958 49.6795 371.374 50.3278 377.363 48.1669C383.351 46.0061 403.978 19.211 429.707 8.19061C455.435 -2.82977 439.466 15.5375 438.8 22.8844C438.135 30.2314 447.007 53.1365 454.548 57.026C462.089 60.9156 497.133 70.2073 520.421 77.5542C543.71 84.9011 515.985 104.133 514.433 108.671C512.88 113.208 489.37 119.691 484.047 119.691C478.724 119.691 465.194 104.133 454.548 99.811C446.031 96.3536 434.438 101.252 429.707 104.133C421.574 105.357 401.672 104.997 387.122 93.7608C368.935 79.7152 335 79.7152 340.988 85.7656C346.977 91.816 357.623 112.992 356.958 119.691C356.292 126.39 344.759 127.686 335 134.385C325.241 141.084 320.583 134.385 312.155 134.385C303.727 134.385 292.637 135.898 275.115 143.893C257.593 151.888 283.543 155.129 292.637 158.803C301.73 162.476 338.77 164.637 371.374 164.637C403.978 164.637 396.216 169.175 405.309 176.522C414.403 183.869 394.885 183.869 371.374 183.869H275.115C260.698 183.869 239.406 183.869 219 169.175C198.595 154.481 203.253 169.175 193.272 169.175C183.291 169.175 169.096 167.662 163.108 169.175C157.119 170.687 143.368 182.356 137.158 183.869C130.947 185.381 126.733 180.843 119.858 176.522C112.982 172.2 92.5766 176.522 78.1599 176.522Z" fill="#DCE2ED"/>
<path d="M70.1808 171.768C55.7641 171.768 42.8999 165.069 43.7871 154.049C31.3665 151.096 5.46064 143.979 1.20191 139.139C-4.1215 133.088 21.8293 129.631 6.52533 114.937C-8.77861 100.243 5.85994 103.917 21.8293 95.0571C37.7986 86.1976 85.2629 108.239 116.314 114.937C147.366 121.636 139.825 109.751 136.054 99.3788C132.284 89.0063 122.717 87.2334 122.717 81.0117C122.717 54.4538 146.035 72.8003 155.129 63.9412C164.222 55.0821 173.316 52.2721 205.033 35.85C236.75 19.4279 227.656 52.2721 233.866 52.2721C240.077 52.2721 273.124 48.383 295.082 40.3878C317.04 32.3926 312.604 35.85 330.791 40.3878C348.979 44.9256 363.395 45.5739 369.384 43.413C375.372 41.2521 395.999 14.4571 421.728 3.4367C447.456 -7.58368 431.487 10.7836 430.821 18.1305C430.156 25.4775 439.028 48.3826 446.569 52.2721C454.11 56.1617 489.154 65.4533 512.442 72.8003C535.731 80.1472 508.006 99.3788 506.454 103.917C504.901 108.454 481.391 114.937 476.068 114.937C470.745 114.937 457.215 99.3788 446.569 95.0571C438.052 91.5997 426.459 96.4977 421.728 99.3788C413.595 100.603 393.693 100.243 379.143 89.0069C360.956 74.9613 327.021 74.9613 333.009 81.0117C338.998 87.0621 349.644 108.239 348.979 114.937C348.313 121.636 336.78 122.932 327.021 129.631C317.262 136.33 312.604 129.631 304.176 129.631C295.747 129.631 284.658 131.144 267.136 139.139C249.614 147.134 275.564 150.375 284.658 154.049C293.751 157.722 330.791 159.883 363.395 159.883C395.999 159.883 388.236 164.421 397.33 171.768C406.424 179.115 386.906 179.115 363.395 179.115H267.136C252.719 179.115 231.427 179.115 211.021 164.421C190.616 149.727 195.274 164.421 185.293 164.421C175.312 164.421 161.117 162.908 155.129 164.421C149.14 165.933 135.389 177.602 129.179 179.115C122.968 180.627 118.754 176.089 111.878 171.768C105.003 167.446 84.5976 171.768 70.1808 171.768Z" fill="#ABC9FF"/>
</svg>
